<?xml version="1.0" standalone="no"?><!DOCTYPE svg PUBLIC "-//W3C//DTD SVG 1.1//EN" "http://www.w3.org/Graphics/SVG/1.1/DTD/svg11.dtd"><svg t="1607245549722" class="icon" viewBox="0 0 1024 1024" version="1.1" xmlns="http://www.w3.org/2000/svg" p-id="8622" data-darkreader-inline-fill="" xmlns:xlink="http://www.w3.org/1999/xlink" width="200" height="200"><defs><style type="text/css">* {  }
</style></defs><path d="M928 1024H96a96 96 0 0 1-96-96V96a96 96 0 0 1 96-96h832a96 96 0 0 1 96 96v832a96 96 0 0 1-96 96zM896 160a32 32 0 0 0-32-32H160a32 32 0 0 0-32 32v704a32 32 0 0 0 32 32h704a32 32 0 0 0 32-32V160z m-192 640H320a64 64 0 0 1 0-128h384a64 64 0 0 1 0 128z m0-224H320a64 64 0 0 1 0-128h384a64 64 0 0 1 0 128z m0-224H320a64 64 0 0 1 0-128h384a64 64 0 0 1 0 128z" p-id="8623"></path></svg>